<?xml version="1.0" encoding="utf-8"?>
<!-- Generator: Adobe Illustrator 24.2.1, SVG Export Plug-In . SVG Version: 6.00 Build 0)  -->
<svg version="1.1" id="Layer_1" xmlns:serif="http://www.serif.com/"
	 xmlns="http://www.w3.org/2000/svg" xmlns:xlink="http://www.w3.org/1999/xlink" x="0px" y="0px" viewBox="0 0 100 100"
	 style="enable-background:new 0 0 100 100;" xml:space="preserve">
<style type="text/css">
	.st0{fill-rule:evenodd;clip-rule:evenodd;fill:#FFFFFF;}
</style>
<path class="st0" d="M49.8,100L49.8,100L49.8,100C49.8,100,49.8,100,49.8,100z M50.2,100L50.2,100L50.2,100L50.2,100z M49.7,100
	L49.7,100L49.7,100L49.7,100z M50.3,100L50.3,100L50.3,100L50.3,100z M49.5,100L49.5,100L49.5,100C49.5,100,49.5,100,49.5,100z
	 M50.5,100L50.5,100L50.5,100C50.5,100,50.5,100,50.5,100z M50.6,100L50.6,100L50.6,100C50.7,100,50.6,100,50.6,100z M49.3,100
	L49.3,100L49.3,100C49.4,100,49.3,100,49.3,100z M50.8,100L50.8,100L50.8,100C50.8,100,50.8,100,50.8,100z M49.2,100L49.2,100
	L49.2,100C49.2,100,49.2,100,49.2,100z M51,100L51,100L51,100L51,100z M49,100L49,100L49,100C49,100,49,100,49,100z M48.8,100
	L48.8,100L48.8,100C48.9,100,48.8,100,48.8,100z M51.1,100L51.1,100L51.1,100L51.1,100z M48.7,100L48.7,100L48.7,100L48.7,100z
	 M51.3,100L51.3,100L51.3,100L51.3,100z M51.5,100L51.5,100L51.5,100C51.5,100,51.5,100,51.5,100z M48.5,100L48.5,100L48.5,100
	C48.5,100,48.5,100,48.5,100z M48.4,100L48.4,100L48.4,100L48.4,100L48.4,100z M51.6,100L51.6,100L51.6,100L51.6,100L51.6,100z
	 M51.8,100L51.8,100L51.8,100L51.8,100z M48.2,100L48.2,100L48.2,100L48.2,100z M48,100L48,100L48,100L48,100z M51.9,100L51.9,100
	L51.9,100L51.9,100z M47.9,100L47.9,100L47.9,100C47.9,100,47.9,100,47.9,100z M52.1,100L52.1,100L52.1,100
	C52.1,100,52.1,100,52.1,100z M47.7,99.9L47.7,99.9L47.7,99.9L47.7,99.9z M52.3,100L52.3,100L52.3,100C52.3,99.9,52.3,100,52.3,100z
	 M47.5,99.9L47.5,99.9L47.5,99.9L47.5,99.9z M52.4,99.9L52.4,99.9L52.4,99.9L52.4,99.9z M47.4,99.9L47.4,99.9L47.4,99.9L47.4,99.9z
	 M52.6,99.9L52.6,99.9L52.6,99.9L52.6,99.9z M52.7,99.9L52.7,99.9L52.7,99.9L52.7,99.9C52.8,99.9,52.7,99.9,52.7,99.9z M47.3,99.9
	L47.3,99.9L47.3,99.9L47.3,99.9C47.2,99.9,47.3,99.9,47.3,99.9z M52.9,99.9L52.9,99.9L52.9,99.9L52.9,99.9z M47.1,99.9L47.1,99.9
	L47.1,99.9L47.1,99.9z M46.9,99.9L46.9,99.9L46.9,99.9C47,99.9,46.9,99.9,46.9,99.9z M53,99.9L53,99.9L53,99.9
	C53.1,99.9,53,99.9,53,99.9z M46.8,99.9L46.8,99.9L46.8,99.9L46.8,99.9C46.7,99.9,46.8,99.9,46.8,99.9z M53.2,99.9L53.2,99.9
	L53.2,99.9L53.2,99.9C53.3,99.9,53.2,99.9,53.2,99.9z M53.4,99.9L53.4,99.9L53.4,99.9C53.4,99.9,53.4,99.9,53.4,99.9z M46.6,99.9
	L46.6,99.9L46.6,99.9L46.6,99.9z M46.4,99.9L46.4,99.9L46.4,99.9C46.5,99.9,46.4,99.9,46.4,99.9z M53.5,99.9L53.5,99.9L53.5,99.9
	L53.5,99.9z M46.3,99.9L46.3,99.9L46.3,99.9C46.3,99.9,46.3,99.9,46.3,99.9z M53.7,99.9L53.7,99.9L53.7,99.9
	C53.7,99.9,53.7,99.9,53.7,99.9z M46.1,99.9L46.1,99.9L46.1,99.9L46.1,99.9z M53.8,99.9L53.8,99.9L53.8,99.9L53.8,99.9z M54,99.8
	L54,99.8L54,99.8L54,99.8z M46,99.8L46,99.8L46,99.8C46,99.8,46,99.8,46,99.8z M45.8,99.8L45.8,99.8L45.8,99.8L45.8,99.8z
	 M54.2,99.8L54.2,99.8L54.2,99.8L54.2,99.8z M45.7,99.8L45.7,99.8L45.7,99.8C45.7,99.8,45.7,99.8,45.7,99.8z M54.3,99.8L54.3,99.8
	L54.3,99.8C54.3,99.8,54.3,99.8,54.3,99.8z M54.5,99.8L54.5,99.8L54.5,99.8C54.5,99.8,54.5,99.8,54.5,99.8z M45.5,99.8L45.5,99.8
	L45.5,99.8C45.5,99.8,45.5,99.8,45.5,99.8z M45.4,99.8L45.4,99.8L45.4,99.8L45.4,99.8z M54.6,99.8L54.6,99.8L54.6,99.8L54.6,99.8z
	 M42.2,99.4C18.3,95.6,0,74.9,0,50C0,22.4,22.4,0,50,0s50,22.4,50,50c0,24.9-18.3,45.6-42.2,49.4V64.5h11.7L71.7,50H57.8v-9.4
	c0-4,1.9-7.8,8.1-7.8h6.3V20.5c0,0-5.7-1-11.2-1c-11.4,0-18.9,6.9-18.9,19.5v11H29.5v14.5h12.7V99.4z"/>
</svg>
