<?xml version="1.0" encoding="utf-8"?>
<!-- Generator: Adobe Illustrator 24.2.1, SVG Export Plug-In . SVG Version: 6.00 Build 0)  -->
<svg version="1.1" id="Layer_1" xmlns:serif="http://www.serif.com/"
	 xmlns="http://www.w3.org/2000/svg" xmlns:xlink="http://www.w3.org/1999/xlink" x="0px" y="0px" viewBox="0 0 100 100"
	 style="enable-background:new 0 0 100 100;" xml:space="preserve">
<style type="text/css">
	.st0{fill-rule:evenodd;clip-rule:evenodd;fill:#FFFFFF;}
</style>
<path class="st0" d="M50,0c27.6,0,50,22.4,50,50s-22.4,50-50,50S0,77.6,0,50S22.4,0,50,0z M50,18.8c-8.5,0-9.6,0-12.9,0.2
	c-3.3,0.2-5.6,0.7-7.6,1.5c-2.1,0.8-3.8,1.9-5.5,3.6c-1.7,1.7-2.8,3.5-3.6,5.5c-0.8,2-1.3,4.3-1.5,7.6c-0.2,3.3-0.2,4.4-0.2,12.9
	s0,9.6,0.2,12.9c0.2,3.3,0.7,5.6,1.5,7.6c0.8,2.1,1.9,3.8,3.6,5.5c1.7,1.7,3.5,2.8,5.5,3.6c2,0.8,4.3,1.3,7.6,1.5
	c3.3,0.2,4.4,0.2,12.9,0.2s9.6,0,12.9-0.2c3.3-0.2,5.6-0.7,7.6-1.5c2.1-0.8,3.8-1.9,5.5-3.6c1.7-1.7,2.8-3.5,3.6-5.5
	c0.8-2,1.3-4.3,1.5-7.6c0.2-3.3,0.2-4.4,0.2-12.9s0-9.6-0.2-12.9c-0.2-3.3-0.7-5.6-1.5-7.6c-0.8-2.1-1.9-3.8-3.6-5.5
	c-1.7-1.7-3.5-2.8-5.5-3.6c-2-0.8-4.3-1.3-7.6-1.5C59.6,18.8,58.5,18.8,50,18.8z M50,24.4c8.3,0,9.3,0,12.6,0.2
	c3,0.1,4.7,0.6,5.8,1.1c1.5,0.6,2.5,1.2,3.6,2.3c1.1,1.1,1.8,2.1,2.3,3.6c0.4,1.1,0.9,2.8,1.1,5.8c0.2,3.3,0.2,4.3,0.2,12.6
	s0,9.3-0.2,12.6c-0.1,3-0.6,4.7-1.1,5.8c-0.6,1.5-1.2,2.5-2.3,3.6c-1.1,1.1-2.1,1.8-3.6,2.3c-1.1,0.4-2.8,0.9-5.8,1.1
	c-3.3,0.2-4.3,0.2-12.6,0.2s-9.3,0-12.6-0.2c-3-0.1-4.7-0.6-5.8-1.1c-1.5-0.6-2.5-1.2-3.6-2.3c-1.1-1.1-1.8-2.1-2.3-3.6
	c-0.4-1.1-0.9-2.8-1.1-5.8c-0.2-3.3-0.2-4.3-0.2-12.6s0-9.3,0.2-12.6c0.1-3,0.6-4.7,1.1-5.8c0.6-1.5,1.2-2.5,2.3-3.6
	c1.1-1.1,2.1-1.8,3.6-2.3c1.1-0.4,2.8-0.9,5.8-1.1C40.7,24.4,41.7,24.4,50,24.4z M50,34c-8.9,0-16,7.2-16,16s7.2,16,16,16
	s16-7.2,16-16S58.9,34,50,34z M50,60.4c-5.8,0-10.4-4.7-10.4-10.4S44.2,39.6,50,39.6S60.4,44.2,60.4,50S55.8,60.4,50,60.4z
	 M70.4,33.3c0,2.1-1.7,3.7-3.8,3.7c-2.1,0-3.7-1.7-3.7-3.7s1.7-3.8,3.7-3.8C68.8,29.6,70.4,31.2,70.4,33.3z"/>
</svg>
