<?xml version="1.0" encoding="utf-8"?>
<!-- Generator: Adobe Illustrator 24.2.1, SVG Export Plug-In . SVG Version: 6.00 Build 0)  -->
<svg version="1.1" id="Layer_1" xmlns:serif="http://www.serif.com/"
	 xmlns="http://www.w3.org/2000/svg" xmlns:xlink="http://www.w3.org/1999/xlink" x="0px" y="0px" viewBox="0 0 100 100"
	 style="enable-background:new 0 0 100 100;" xml:space="preserve">
<style type="text/css">
	.st0{fill-rule:evenodd;clip-rule:evenodd;fill:#FFFFFF;}
</style>
<path class="st0" d="M50,0c27.6,0,50,22.4,50,50s-22.4,50-50,50S0,77.6,0,50S22.4,0,50,0z M79.9,35c-0.7-2.7-2.8-4.8-5.5-5.5
	C69.5,28.1,50,28.1,50,28.1s-19.5,0-24.4,1.3c-2.7,0.7-4.8,2.8-5.5,5.5c-1.3,4.9-1.3,15-1.3,15s0,10.2,1.3,15
	c0.7,2.7,2.8,4.8,5.5,5.5c4.9,1.3,24.4,1.3,24.4,1.3s19.5,0,24.4-1.3c2.7-0.7,4.8-2.8,5.5-5.5c1.3-4.9,1.3-15,1.3-15
	S81.3,39.8,79.9,35z M43.7,59.4V40.6L60,50C60,50,43.7,59.4,43.7,59.4z"/>
</svg>
